<?xml version="1.0" encoding="UTF-8" standalone="no"?>
<svg
   xmlns:dc="http://purl.org/dc/elements/1.1/"
   xmlns:cc="http://creativecommons.org/ns#"
   xmlns:rdf="http://www.w3.org/1999/02/22-rdf-syntax-ns#"
   xmlns:svg="http://www.w3.org/2000/svg"
   xmlns="http://www.w3.org/2000/svg"
   xmlns:sodipodi="http://sodipodi.sourceforge.net/DTD/sodipodi-0.dtd"
   xmlns:inkscape="http://www.inkscape.org/namespaces/inkscape"
   height="24"
   viewBox="0 0 24 24"
   width="24"
   version="1.1"
   id="svg24"
   sodipodi:docname="measureLine.svg"
   inkscape:version="1.0.2 (e86c870879, 2021-01-15, custom)"
   inkscape:export-xdpi="96"
   inkscape:export-ydpi="96">
  <metadata
     id="metadata30">
    <rdf:RDF>
      <cc:Work
         rdf:about="">
        <dc:format>image/svg+xml</dc:format>
        <dc:type
           rdf:resource="http://purl.org/dc/dcmitype/StillImage" />
        <dc:title></dc:title>
      </cc:Work>
    </rdf:RDF>
  </metadata>
  <defs
     id="defs28">
    <pattern
       y="0"
       x="0"
       height="6"
       width="6"
       patternUnits="userSpaceOnUse"
       id="EMFhbasepattern" />
    <pattern
       y="0"
       x="0"
       height="6"
       width="6"
       patternUnits="userSpaceOnUse"
       id="EMFhbasepattern-1" />
  </defs>
  <sodipodi:namedview
     pagecolor="#ffffff"
     bordercolor="#666666"
     borderopacity="1"
     objecttolerance="10"
     gridtolerance="10"
     guidetolerance="10"
     inkscape:pageopacity="0"
     inkscape:pageshadow="2"
     inkscape:window-width="1868"
     inkscape:window-height="978"
     id="namedview26"
     showgrid="false"
     inkscape:zoom="33.791667"
     inkscape:cx="9.9018211"
     inkscape:cy="12"
     inkscape:window-x="0"
     inkscape:window-y="14"
     inkscape:window-maximized="0"
     inkscape:current-layer="svg24"
     inkscape:document-rotation="0" />
  <path
     style="color:#000000;font-style:normal;font-variant:normal;font-weight:normal;font-stretch:normal;font-size:medium;line-height:normal;font-family:sans-serif;font-variant-ligatures:normal;font-variant-position:normal;font-variant-caps:normal;font-variant-numeric:normal;font-variant-alternates:normal;font-feature-settings:normal;text-indent:0;text-align:start;text-decoration:none;text-decoration-line:none;text-decoration-style:solid;text-decoration-color:#000000;letter-spacing:normal;word-spacing:normal;text-transform:none;writing-mode:lr-tb;direction:ltr;text-orientation:mixed;dominant-baseline:auto;baseline-shift:baseline;text-anchor:start;white-space:normal;shape-padding:0;clip-rule:nonzero;display:inline;overflow:visible;visibility:visible;opacity:1;isolation:auto;mix-blend-mode:normal;color-interpolation:sRGB;color-interpolation-filters:linearRGB;solid-color:#000000;solid-opacity:1;vector-effect:none;fill:#1f78b4;fill-opacity:1;fill-rule:evenodd;stroke:#000021;stroke-width:0.5;stroke-linecap:butt;stroke-linejoin:miter;stroke-miterlimit:4;stroke-dasharray:none;stroke-dashoffset:0;stroke-opacity:1;color-rendering:auto;image-rendering:auto;shape-rendering:auto;text-rendering:auto;enable-background:accumulate"
     d="m 4.4981088,16.871343 0.2105111,1.789011 C 7.7335157,15.956842 15.452918,15.411754 19.119388,18.34782 l 0.13583,-1.781128 C 16.715129,13.532147 7.7827601,13.527397 4.4981088,16.871343 Z"
     id="path821"
     inkscape:connector-curvature="0"
     sodipodi:nodetypes="ccccc" />
  <circle
     style="fill:#1f78b4;fill-opacity:1;stroke:#000000;stroke-width:0.5;stroke-linecap:square;stroke-linejoin:miter;stroke-miterlimit:4;stroke-dasharray:none;stroke-dashoffset:42.3307;stroke-opacity:1"
     id="path817"
     cx="4.0678005"
     cy="18.000273"
     r="2.8405094" />
  <circle
     style="fill:#1f78b4;fill-opacity:1;stroke:#000000;stroke-width:0.5;stroke-linecap:square;stroke-linejoin:miter;stroke-miterlimit:4;stroke-dasharray:none;stroke-dashoffset:42.3307;stroke-opacity:1"
     id="path817-0"
     cx="19.945745"
     cy="18.000273"
     r="2.8405094" />
  <g
     aria-label="123"
     id="text819"
     style="font-style:normal;font-weight:normal;font-size:40px;line-height:125%;font-family:sans-serif;letter-spacing:0px;word-spacing:0px;fill:#000000;fill-opacity:1;stroke:none;stroke-width:1px;stroke-linecap:butt;stroke-linejoin:miter;stroke-opacity:1">
    <path
       d="M 8.3051948,10.829885 H 3.7752484 V 9.6449891 H 5.2062375 V 6.0584018 H 3.7752484 V 4.9509803 q 0.3281249,0 0.6289061,-0.036458 Q 4.7049356,4.8735063 4.9054564,4.7778033 5.1424355,4.663871 5.260925,4.4815794 5.3794146,4.2992878 5.3976437,4.0258504 h 1.508463 v 5.6191387 h 1.3990881 z"
       style="font-style:normal;font-variant:normal;font-weight:bold;font-stretch:normal;font-size:9.33333px;line-height:105.4%;font-family:sans-serif;-inkscape-font-specification:'sans-serif Bold'"
       id="path836" />
    <path
       d="M 15.368995,10.829885 H 10.041523 V 9.7087912 q 0.610676,-0.4420572 1.221353,-0.9388018 0.615234,-0.4967446 0.984375,-0.8567705 0.551432,-0.533203 0.783854,-0.9296872 0.232422,-0.3964843 0.232422,-0.7838539 0,-0.4648436 -0.300782,-0.7154946 -0.296223,-0.2552082 -0.85677,-0.2552082 -0.419271,0 -0.884114,0.173177 -0.460287,0.173177 -0.856771,0.4420571 h -0.145833 v -1.508463 q 0.323567,-0.141276 0.952473,-0.282552 0.633464,-0.141276 1.266927,-0.141276 1.276041,0 1.945963,0.5377603 0.669922,0.5332029 0.669922,1.5130203 0,0.6425779 -0.323568,1.2213537 -0.31901,0.5787759 -0.979817,1.19401 -0.414714,0.3828124 -0.833984,0.70638 -0.419271,0.3190103 -0.597005,0.4466144 h 3.048827 z"
       style="font-style:normal;font-variant:normal;font-weight:bold;font-stretch:normal;font-size:9.33333px;line-height:105.4%;font-family:sans-serif;-inkscape-font-specification:'sans-serif Bold'"
       id="path838" />
    <path
       d="m 21.339045,7.648896 q 0.223307,0.1914062 0.355469,0.4466145 0.132161,0.2552082 0.132161,0.6790362 0,0.4785154 -0.191406,0.8932288 -0.186849,0.4147135 -0.578776,0.7109375 -0.382812,0.287109 -0.902344,0.442057 -0.514973,0.150391 -1.253254,0.150391 -0.843099,0 -1.449219,-0.132162 -0.601562,-0.132161 -0.979817,-0.296224 V 9.0525414 h 0.177734 q 0.391927,0.2369791 0.934245,0.4101561 0.546875,0.173177 0.998046,0.173177 0.264323,0 0.574219,-0.041016 0.309896,-0.045573 0.524088,-0.1914062 0.16862,-0.1139322 0.26888,-0.2734374 0.100261,-0.1640624 0.100261,-0.4694009 0,-0.2962238 -0.136719,-0.455729 -0.136719,-0.164062 -0.360026,-0.2324214 -0.223307,-0.072917 -0.53776,-0.077474 -0.314453,-0.00911 -0.583333,-0.00911 H 18.057796 V 6.6736359 h 0.38737 q 0.355468,0 0.628906,-0.022786 0.273437,-0.022786 0.464843,-0.1048177 0.200521,-0.086588 0.300781,-0.2278645 0.100261,-0.1458333 0.100261,-0.423828 0,-0.205078 -0.104818,-0.3281249 -0.104817,-0.1276041 -0.264323,-0.2005207 -0.177734,-0.082031 -0.41927,-0.109375 -0.241537,-0.027344 -0.414714,-0.027344 -0.428385,0 -0.929687,0.1503906 -0.501302,0.1458332 -0.970703,0.4238279 H 16.667823 V 4.3311888 q 0.373697,-0.1503905 1.016275,-0.2871093 0.642578,-0.1412759 1.303385,-0.1412759 0.642578,0 1.125651,0.1139322 0.483073,0.109375 0.797526,0.2962239 0.373697,0.2233072 0.555989,0.5423175 0.182292,0.3190103 0.182292,0.7473956 0,0.5651039 -0.350912,1.0117184 -0.350911,0.4420571 -0.92513,0.5651039 v 0.063802 q 0.232422,0.031901 0.492188,0.1276041 0.259765,0.095703 0.473958,0.2779948 z"
       style="font-style:normal;font-variant:normal;font-weight:bold;font-stretch:normal;font-size:9.33333px;line-height:105.4%;font-family:sans-serif;-inkscape-font-specification:'sans-serif Bold'"
       id="path840" />
  </g>
</svg>
